<mxfile host="app.diagrams.net" modified="2021-12-06T09:18:46.023Z" agent="5.0 (Windows NT 10.0; Win64; x64) AppleWebKit/537.36 (KHTML, like Gecko) Chrome/96.0.4664.45 Safari/537.36" etag="B3gmLmVF5CMkLwhFDRxX" version="15.8.9" type="github">
  <diagram id="C5RBs43oDa-KdzZeNtuy" name="Page-1">
    <mxGraphModel dx="1681" dy="908" grid="1" gridSize="10" guides="1" tooltips="1" connect="1" arrows="1" fold="1" page="1" pageScale="1" pageWidth="827" pageHeight="1169" math="0" shadow="0">
      <root>
        <mxCell id="WIyWlLk6GJQsqaUBKTNV-0" />
        <mxCell id="WIyWlLk6GJQsqaUBKTNV-1" parent="WIyWlLk6GJQsqaUBKTNV-0" />
        <mxCell id="BqkntWld1toCkQgIHICi-25" value="" style="edgeStyle=orthogonalEdgeStyle;rounded=0;orthogonalLoop=1;jettySize=auto;html=1;" edge="1" parent="WIyWlLk6GJQsqaUBKTNV-1" source="BqkntWld1toCkQgIHICi-0" target="BqkntWld1toCkQgIHICi-6">
          <mxGeometry relative="1" as="geometry">
            <Array as="points">
              <mxPoint x="320" y="260" />
              <mxPoint x="320" y="260" />
            </Array>
          </mxGeometry>
        </mxCell>
        <mxCell id="BqkntWld1toCkQgIHICi-0" value="Front&lt;br&gt;Order form&amp;nbsp;" style="rounded=0;whiteSpace=wrap;html=1;fillColor=#dae8fc;strokeColor=#6c8ebf;" vertex="1" parent="WIyWlLk6GJQsqaUBKTNV-1">
          <mxGeometry x="240.5" y="160" width="100" height="60" as="geometry" />
        </mxCell>
        <mxCell id="BqkntWld1toCkQgIHICi-12" style="edgeStyle=orthogonalEdgeStyle;rounded=0;orthogonalLoop=1;jettySize=auto;html=1;entryX=0.5;entryY=0;entryDx=0;entryDy=0;" edge="1" parent="WIyWlLk6GJQsqaUBKTNV-1" source="BqkntWld1toCkQgIHICi-1" target="BqkntWld1toCkQgIHICi-7">
          <mxGeometry relative="1" as="geometry" />
        </mxCell>
        <mxCell id="BqkntWld1toCkQgIHICi-1" value="Kafka" style="ellipse;whiteSpace=wrap;html=1;fillColor=#f5f5f5;gradientColor=#b3b3b3;strokeColor=#666666;" vertex="1" parent="WIyWlLk6GJQsqaUBKTNV-1">
          <mxGeometry x="280" y="400" width="120" height="80" as="geometry" />
        </mxCell>
        <mxCell id="BqkntWld1toCkQgIHICi-15" style="edgeStyle=orthogonalEdgeStyle;rounded=0;orthogonalLoop=1;jettySize=auto;html=1;entryX=1;entryY=0.5;entryDx=0;entryDy=0;" edge="1" parent="WIyWlLk6GJQsqaUBKTNV-1" source="BqkntWld1toCkQgIHICi-2" target="BqkntWld1toCkQgIHICi-6">
          <mxGeometry relative="1" as="geometry">
            <Array as="points">
              <mxPoint x="560" y="310" />
            </Array>
          </mxGeometry>
        </mxCell>
        <mxCell id="BqkntWld1toCkQgIHICi-2" value="Redis" style="shape=cylinder3;whiteSpace=wrap;html=1;boundedLbl=1;backgroundOutline=1;size=15;fillColor=#e51400;fontColor=#ffffff;strokeColor=#B20000;" vertex="1" parent="WIyWlLk6GJQsqaUBKTNV-1">
          <mxGeometry x="530" y="390" width="60" height="80" as="geometry" />
        </mxCell>
        <mxCell id="BqkntWld1toCkQgIHICi-3" value="Postgres" style="shape=cylinder3;whiteSpace=wrap;html=1;boundedLbl=1;backgroundOutline=1;size=15;fillColor=#0050ef;fontColor=#ffffff;strokeColor=#001DBC;" vertex="1" parent="WIyWlLk6GJQsqaUBKTNV-1">
          <mxGeometry x="270" y="690" width="140" height="80" as="geometry" />
        </mxCell>
        <mxCell id="BqkntWld1toCkQgIHICi-31" value="" style="edgeStyle=orthogonalEdgeStyle;rounded=0;orthogonalLoop=1;jettySize=auto;html=1;entryX=0.432;entryY=-0.055;entryDx=0;entryDy=0;entryPerimeter=0;" edge="1" parent="WIyWlLk6GJQsqaUBKTNV-1" target="BqkntWld1toCkQgIHICi-0">
          <mxGeometry relative="1" as="geometry">
            <mxPoint x="325" y="70" as="sourcePoint" />
            <Array as="points">
              <mxPoint x="325" y="70" />
              <mxPoint x="284" y="70" />
            </Array>
          </mxGeometry>
        </mxCell>
        <mxCell id="BqkntWld1toCkQgIHICi-4" value="Client" style="shape=umlActor;verticalLabelPosition=bottom;verticalAlign=top;html=1;outlineConnect=0;" vertex="1" parent="WIyWlLk6GJQsqaUBKTNV-1">
          <mxGeometry x="325" y="20" width="30" height="60" as="geometry" />
        </mxCell>
        <mxCell id="BqkntWld1toCkQgIHICi-11" style="edgeStyle=orthogonalEdgeStyle;rounded=0;orthogonalLoop=1;jettySize=auto;html=1;entryX=0.5;entryY=0;entryDx=0;entryDy=0;" edge="1" parent="WIyWlLk6GJQsqaUBKTNV-1" source="BqkntWld1toCkQgIHICi-6" target="BqkntWld1toCkQgIHICi-1">
          <mxGeometry relative="1" as="geometry" />
        </mxCell>
        <mxCell id="BqkntWld1toCkQgIHICi-6" value="" style="rounded=1;whiteSpace=wrap;html=1;" vertex="1" parent="WIyWlLk6GJQsqaUBKTNV-1">
          <mxGeometry x="280" y="280" width="120" height="60" as="geometry" />
        </mxCell>
        <mxCell id="BqkntWld1toCkQgIHICi-10" style="edgeStyle=orthogonalEdgeStyle;rounded=0;orthogonalLoop=1;jettySize=auto;html=1;entryX=0.5;entryY=1;entryDx=0;entryDy=0;entryPerimeter=0;" edge="1" parent="WIyWlLk6GJQsqaUBKTNV-1" source="BqkntWld1toCkQgIHICi-7" target="BqkntWld1toCkQgIHICi-2">
          <mxGeometry relative="1" as="geometry" />
        </mxCell>
        <mxCell id="BqkntWld1toCkQgIHICi-7" value="Order processing" style="rounded=1;whiteSpace=wrap;html=1;" vertex="1" parent="WIyWlLk6GJQsqaUBKTNV-1">
          <mxGeometry x="280" y="560" width="120" height="60" as="geometry" />
        </mxCell>
        <mxCell id="BqkntWld1toCkQgIHICi-14" value="" style="endArrow=classic;startArrow=classic;html=1;rounded=0;entryX=0.5;entryY=1;entryDx=0;entryDy=0;exitX=0.5;exitY=0;exitDx=0;exitDy=0;exitPerimeter=0;" edge="1" parent="WIyWlLk6GJQsqaUBKTNV-1" source="BqkntWld1toCkQgIHICi-3" target="BqkntWld1toCkQgIHICi-7">
          <mxGeometry width="50" height="50" relative="1" as="geometry">
            <mxPoint x="325" y="670" as="sourcePoint" />
            <mxPoint x="375" y="620" as="targetPoint" />
          </mxGeometry>
        </mxCell>
        <mxCell id="BqkntWld1toCkQgIHICi-24" value="" style="edgeStyle=orthogonalEdgeStyle;rounded=0;orthogonalLoop=1;jettySize=auto;html=1;entryX=0.75;entryY=0;entryDx=0;entryDy=0;" edge="1" parent="WIyWlLk6GJQsqaUBKTNV-1" source="BqkntWld1toCkQgIHICi-18" target="BqkntWld1toCkQgIHICi-6">
          <mxGeometry relative="1" as="geometry">
            <Array as="points">
              <mxPoint x="370" y="240" />
              <mxPoint x="370" y="240" />
            </Array>
          </mxGeometry>
        </mxCell>
        <mxCell id="BqkntWld1toCkQgIHICi-29" value="" style="edgeStyle=orthogonalEdgeStyle;rounded=0;orthogonalLoop=1;jettySize=auto;html=1;" edge="1" parent="WIyWlLk6GJQsqaUBKTNV-1" source="BqkntWld1toCkQgIHICi-18" target="BqkntWld1toCkQgIHICi-4">
          <mxGeometry relative="1" as="geometry">
            <Array as="points">
              <mxPoint x="389" y="70" />
            </Array>
          </mxGeometry>
        </mxCell>
        <mxCell id="BqkntWld1toCkQgIHICi-18" value="Front&lt;br&gt;Order history" style="rounded=0;whiteSpace=wrap;html=1;fillColor=#dae8fc;strokeColor=#6c8ebf;" vertex="1" parent="WIyWlLk6GJQsqaUBKTNV-1">
          <mxGeometry x="339.5" y="160" width="100" height="60" as="geometry" />
        </mxCell>
      </root>
    </mxGraphModel>
  </diagram>
</mxfile>
